# xmcd
#
# Track frame offsets: 
#        150
#        19042
#        31832
#        47568
#        61852
#        79318
#        95839
#        109377
#        124369
#        141015
#        156217
#        171477
#        189233
#        203371
#        219658
#        234571
#        252049
#        268906
#
# Disc length: 3797 seconds
#
# Revision: 2
# Processed by: cddbd v1.5.1PL2 Copyright (c) Steve Scherf et al.
# Submitted via: ExactAudioCopy v0.95b3
#
DISCID=fe0ed312
DTITLE=Various Artist - Samba pa ti
DYEAR=2005
DGENRE=Flamenco/Jazz-Fusion
TTITLE0=Jarabe de palo - La chica de Ipanema
TTITLE1=Rosario - Se que te amaré
TTITLE2=David Demaria - Samurai
TTITLE3=Carmen Paris - Mañana de Carnaval
TTITLE4=Lolita - Usted abusó
TTITLE5=Monica Naranjo - Insensatez
TTITLE6=Alejandro Sanz - Sozinho
TTITLE7=Lucrecia - Mas que nada
TTITLE8=Antonio Vega - Hoy daría yo mi vida
TTITLE9=Presuntos Implicados - Una guitarra una cancion- Corcovado
TTITLE10=Jorge Drexler - Oh que sera
TTITLE11=Melendi - Adios tristeza
TTITLE12=Ana Belén - Barquinho
TTITLE13=Martinez Ares - Ven Magalenha
TTITLE14=Cafe Quijano - País Tropical
TTITLE15=Pastora Soler - Por que llorar
TTITLE16=Javier Alvarez - Desde que o samba e samba
TTITLE17=Lolita Ana Belen, Lucrecia, Carmen Paris, Pastora Soler - Des
TTITLE17=afinado
EXTD=Samba Pa Ti
EXTT0=
EXTT1=
EXTT2=
EXTT3=
EXTT4=
EXTT5=
EXTT6=
EXTT7=
EXTT8=
EXTT9=
EXTT10=
EXTT11=
EXTT12=
EXTT13=
EXTT14=
EXTT15=
EXTT16=
EXTT17=
PLAYORDER=
